<?xml version="1.0" standalone="no"?>
<!DOCTYPE svg PUBLIC "-//W3C//DTD SVG 20010904//EN"
 "http://www.w3.org/TR/2001/REC-SVG-20010904/DTD/svg10.dtd">
<svg version="1.0" xmlns="http://www.w3.org/2000/svg"
 width="128.000000pt" height="128.000000pt" viewBox="0 0 128.000000 128.000000"
 preserveAspectRatio="xMidYMid meet">
<g transform="translate(0.000000,128.000000) scale(0.100000,-0.100000)"
fill="#000000" stroke="none">
<path d="M895 893 c-16 -8 -40 -26 -53 -39 -32 -33 -135 -84 -171 -84 -16 0
-33 -4 -36 -10 -3 -5 -24 -10 -45 -10 -34 0 -74 -6 -166 -25 -32 -7 -214 -150
-202 -159 67 -51 127 -71 231 -74 l107 -4 0 -63 c0 -48 -5 -68 -21 -89 -11
-14 -16 -26 -11 -26 6 0 13 8 17 18 7 15 9 14 15 -8 8 -24 8 -24 9 5 l1 30 20
-25 c11 -14 20 -20 20 -14 0 6 -9 19 -20 29 -16 14 -20 31 -20 82 l0 63 71 0
71 0 -5 -72 c-2 -40 -7 -84 -11 -98 l-7 -25 12 25 11 25 9 -23 c11 -29 23 -29
13 0 -6 20 -5 21 10 9 9 -8 19 -11 22 -9 3 3 -7 15 -21 26 -24 19 -26 26 -23
84 l3 63 40 6 c85 12 215 102 215 149 0 16 7 36 16 44 17 18 21 19 154 42 104
19 102 23 -20 43 -102 18 -100 17 -100 49 0 70 -66 102 -135 65z"/>
</g>
</svg>
